snake_rectilinear_motion_ik.mot		
version=1		
nRows=75		
nColumns=3		
inDegrees=yes		
		
Units are S.I. units (second, meters, Newtons, ...)		
Angles are in degrees.		
		
endheader		
time	rib0_tx	rib1_tx
0.000	0.000	0.000
0.010	0.000	0.000
0.020	0.000	0.001
0.030	0.000	0.001
0.040	0.000	0.002
0.060	0.000	0.002
0.070	0.000	0.003
0.080	0.000	0.003
0.090	0.000	0.003
0.100	0.000	0.003
0.110	0.001	0.003
0.120	0.001	0.003
0.130	0.002	0.003
0.140	0.002	0.003
0.150	0.003	0.003
0.160	0.003	0.003
0.170	0.003	0.003
0.180	0.003	0.003
0.190	0.003	0.003
0.200	0.003	0.003
0.210	0.003	0.003
0.220	0.003	0.003
0.230	0.003	0.003
0.240	0.003	0.003
0.250	0.003	0.003
0.260	0.003	0.003
0.270	0.003	0.003
0.280	0.003	0.003
0.290	0.003	0.003
0.300	0.003	0.003
0.310	0.003	0.003
0.320	0.003	0.003
0.330	0.003	0.003
0.340	0.003	0.003
0.350	0.003	0.003
0.360	0.003	0.003
0.370	0.003	0.003
0.380	0.003	0.003
0.390	0.003	0.003
0.400	0.003	0.003
0.410	0.003	0.003
0.420	0.003	0.003
0.430	0.003	0.003
0.440	0.003	0.003
0.450	0.003	0.003
0.460	0.003	0.003
0.470	0.003	0.003
0.480	0.003	0.003
0.490	0.003	0.003
0.500	0.003	0.003
0.510	0.003	0.003
0.520	0.003	0.003
0.530	0.003	0.003
0.540	0.003	0.003
0.550	0.003	0.003
0.560	0.003	0.003
0.570	0.003	0.003
0.580	0.003	0.003
0.590	0.003	0.003
0.600	0.003	0.003
0.610	0.003	0.003
0.620	0.003	0.003
0.630	0.003	0.003
0.640	0.003	0.003
0.650	0.003	0.003
0.660	0.003	0.003
0.670	0.003	0.003
0.680	0.003	0.003
0.690	0.003	0.003
0.700	0.003	0.003
0.710	0.003	0.003
0.720	0.003	0.003
0.730	0.003	0.003
0.740	0.003	0.003
0.750	0.003	0.003
